<svg width="50" height="50" viewBox="0 0 50 50" fill="none" xmlns="http://www.w3.org/2000/svg">
<path d="M20.8335 20.8335H29.1668V29.1668H20.8335V20.8335Z" stroke="#0E7DFF" stroke-width="4" stroke-linecap="round" stroke-linejoin="round"/>
<path d="M20.8332 20.8332L13.5415 13.5415" stroke="#0E7DFF" stroke-width="4" stroke-linecap="round" stroke-linejoin="round"/>
<path d="M20.7502 12.5002C20.5586 11.1597 19.9975 9.89907 19.1299 8.8595C18.2622 7.81992 17.1221 7.0425 15.8375 6.61434C14.5529 6.18618 13.1744 6.12419 11.8565 6.43532C10.5386 6.74646 9.33341 7.41842 8.37591 8.37591C7.41842 9.33341 6.74646 10.5386 6.43532 11.8565C6.12419 13.1744 6.18618 14.5529 6.61434 15.8375C7.0425 17.1221 7.81992 18.2622 8.8595 19.1299C9.89907 19.9975 11.1597 20.5586 12.5002 20.7502" stroke="#0E7DFF" stroke-width="4" stroke-linecap="round" stroke-linejoin="round"/>
<path d="M29.1665 20.8332L36.4582 13.5415" stroke="#0E7DFF" stroke-width="4" stroke-linecap="round" stroke-linejoin="round"/>
<path d="M37.5 20.7502C38.8405 20.5586 40.1011 19.9975 41.1407 19.1299C42.1803 18.2622 42.9577 17.1221 43.3859 15.8375C43.814 14.5529 43.876 13.1744 43.5649 11.8565C43.2538 10.5386 42.5818 9.33341 41.6243 8.37591C40.6668 7.41842 39.4616 6.74646 38.1437 6.43532C36.8258 6.12419 35.4474 6.18618 34.1627 6.61434C32.8781 7.0425 31.7381 7.81992 30.8704 8.8595C30.0027 9.89907 29.4416 11.1597 29.25 12.5002" stroke="#0E7DFF" stroke-width="4" stroke-linecap="round" stroke-linejoin="round"/>
<path d="M29.1665 29.1667L36.4582 36.4584" stroke="#0E7DFF" stroke-width="4" stroke-linecap="round" stroke-linejoin="round"/>
<path d="M29.25 37.5C29.4416 38.8405 30.0027 40.1011 30.8704 41.1407C31.7381 42.1803 32.8781 42.9577 34.1627 43.3859C35.4474 43.814 36.8258 43.876 38.1437 43.5649C39.4616 43.2538 40.6668 42.5818 41.6243 41.6243C42.5818 40.6668 43.2538 39.4616 43.5649 38.1437C43.876 36.8258 43.814 35.4474 43.3859 34.1627C42.9577 32.8781 42.1803 31.7381 41.1407 30.8704C40.1011 30.0027 38.8405 29.4416 37.5 29.25" stroke="#0E7DFF" stroke-width="4" stroke-linecap="round" stroke-linejoin="round"/>
<path d="M20.8332 29.1667L13.5415 36.4584" stroke="#0E7DFF" stroke-width="4" stroke-linecap="round" stroke-linejoin="round"/>
<path d="M12.5002 29.25C11.1597 29.4416 9.89907 30.0027 8.8595 30.8704C7.81992 31.7381 7.0425 32.8781 6.61434 34.1627C6.18618 35.4474 6.12419 36.8258 6.43532 38.1437C6.74646 39.4616 7.41842 40.6668 8.37591 41.6243C9.33341 42.5818 10.5386 43.2538 11.8565 43.5649C13.1744 43.876 14.5529 43.814 15.8375 43.3859C17.1221 42.9577 18.2622 42.1803 19.1299 41.1407C19.9975 40.1011 20.5586 38.8405 20.7502 37.5" stroke="#0E7DFF" stroke-width="4" stroke-linecap="round" stroke-linejoin="round"/>
</svg>
