<svg width="20" height="21" viewBox="0 0 20 21" fill="none" xmlns="http://www.w3.org/2000/svg">
<path d="M17.4977 15.7489C17.0327 15.7634 16.6027 15.9077 16.2377 16.1492L13.4729 13.321C14.0154 12.6031 14.3579 11.6949 14.3978 10.7053L16.3602 10.4993C16.6415 11.229 17.3102 11.7343 18.0914 11.7343C19.1201 11.7343 19.9538 10.8589 19.9538 9.77877C19.9538 8.69865 19.1201 7.82328 18.0914 7.82328C17.1552 7.82328 16.3815 8.54773 16.249 9.49135L14.2604 9.65934C13.9804 8.16844 13.0442 6.95577 11.788 6.35075L12.173 5.24964H12.498C13.8716 5.23914 14.9803 4.06847 14.9803 2.62482C14.9803 1.17461 13.8616 0 12.4805 0C11.0993 0 9.98063 1.17461 9.98063 2.62482C9.98063 3.59863 10.4856 4.44907 11.2355 4.90185L10.8981 6.02396C10.6143 5.95309 10.2894 5.91372 9.95563 5.91372C8.91819 5.91372 7.96825 6.30219 7.22955 6.94921L3.48728 3.00673C3.66352 2.71275 3.76851 2.35446 3.76851 1.96993C3.76851 0.883252 2.92857 0.00131241 1.89363 0.00131241C0.858696 0.00131241 0.0187488 0.883252 0.0187488 1.96993C0.0187488 3.05004 0.847447 3.92804 1.87363 3.93854C2.22486 3.93723 2.55359 3.83486 2.83232 3.65769L6.57334 7.60017C5.98088 8.37186 5.6234 9.36405 5.6234 10.4455V10.5045V10.7119L4.79845 10.8563C4.40722 9.91132 3.52478 9.26299 2.49984 9.26299C1.11868 9.26299 0 10.4376 0 11.8878C0 13.338 1.11868 14.5126 2.49984 14.5126C3.88101 14.5126 4.99969 13.338 4.99969 11.8878C4.99969 11.8616 4.99969 11.8366 4.99844 11.8104L5.78589 11.6831C6.08837 12.7894 6.74583 13.7016 7.61827 14.2974L6.92332 15.8565C6.72208 15.7922 6.48959 15.7542 6.24961 15.7515C6.24211 15.7515 6.23461 15.7515 6.22836 15.7515C4.8472 15.7515 3.72852 16.9262 3.72852 18.3764C3.72852 19.8266 4.8472 21.0012 6.22836 21.0012C7.60952 21.0012 8.7282 19.8266 8.7282 18.3764C8.7282 17.5364 8.35198 16.787 7.76701 16.3067L8.47447 14.7935C8.92944 14.9851 9.45816 15.0967 10.0106 15.0967C11.0693 15.0967 12.0367 14.6885 12.7804 14.0152L15.5003 16.8028C15.1878 17.2359 15.0003 17.7845 15.0003 18.3777C15.0003 19.8279 16.119 21.0025 17.5002 21.0025C18.8813 21.0025 20 19.8279 20 18.3777C20 16.9275 18.8813 15.7529 17.5002 15.7529L17.4977 15.7489ZM6.24836 19.6862C5.5584 19.6862 4.99844 19.0982 4.99844 18.3737C4.99844 17.6493 5.5584 17.0613 6.24836 17.0613C6.93832 17.0613 7.49828 17.6493 7.49828 18.3737C7.49828 19.0982 6.93832 19.6862 6.24836 19.6862ZM9.99812 13.7803C8.27198 13.7803 6.87332 12.3117 6.87332 10.4993C6.87332 8.68684 8.27198 7.21826 9.99812 7.21826C11.7243 7.21826 13.1229 8.68684 13.1229 10.4993C13.1229 12.3117 11.7243 13.7803 9.99812 13.7803Z" fill="#526D82"/>
</svg>
